<svg id="レイヤー_1" data-name="レイヤー 1" xmlns="http://www.w3.org/2000/svg" xmlns:xlink="http://www.w3.org/1999/xlink" viewBox="0 0 94.12 93.51"><defs><style>.cls-1{fill:none;}.cls-2{clip-path:url(#clip-path);}.cls-3{fill:#9c5729;}.cls-4{fill:#b66629;}.cls-5{fill:#c67c36;}.cls-6{fill:#f9e8c4;}.cls-7{fill:#fff;}.cls-8{fill:#00101d;}.cls-9{fill:#e1701b;}</style><clipPath id="clip-path"><rect class="cls-1" width="94.12" height="93.51"/></clipPath></defs><g class="cls-2"><path class="cls-3" d="M92.37,76.41a4.17,4.17,0,0,0-1-3.17,8,8,0,0,0-5.17-2.74,1.85,1.85,0,0,0,0-1.77A2,2,0,0,0,84,68a5.11,5.11,0,0,0-2,1.23,9.61,9.61,0,0,0-1.71,1.84l-.58.26c-.51.25-1,.53-1.46.82-2.87,1.78-5.42,1.41-9,1.54s-4.17,0-6.25-2.29c-1.11-1.2-.91-1.61-1.41-3.08-1.36-4-5.5-4.87-9.06-1.54s-.11,7.67,1.47,10.9c2.45,5,5.43,7.17,11.21,6.84a45,45,0,0,0,7.54-.87c1.75-.49,3.91-1.19,5.76-1,2.4.27,3.38.92,6.18.78C89.58,83.25,92.3,80.13,92.37,76.41Z"/><path class="cls-4" d="M2,60.24a4.18,4.18,0,0,1,2-2.7,8,8,0,0,1,5.77-1,1.85,1.85,0,0,1,.57-1.68,2,2,0,0,1,2.25,0,5.07,5.07,0,0,1,1.56,1.81,9.55,9.55,0,0,1,1,2.27l.47.42c.41.4.78.82,1.14,1.24,2.18,2.58,4.72,3,8,4.24s4,1.24,6.65-.25c1.43-.8,1.37-1.25,2.3-2.49,2.51-3.34,6.73-2.93,9.09,1.33,2.46,4.45-2.27,7.34-4.77,9.92-3.87,4-7.38,5.13-12.78,3a46.88,46.88,0,0,1-6.9-3.17c-1.51-1-3.35-2.34-5.17-2.71-2.37-.49-3.5-.17-6.12-1.17C2.5,67.61.88,63.8,2,60.24Z"/><path class="cls-4" d="M63.91,98.1C64,91.78,62,61,46.13,64.53,31.37,57.77,23,87.43,21.71,93.62c-1.86,9,8.42,15.48,19.54,16.93C52.43,111.46,63.84,107.31,63.91,98.1Z"/><path class="cls-3" d="M54.48,66.37c-.55,9,2.24,21.43,2.21,25.28C56.62,100.87,45.21,105,34,104.11c-5.6-.74-8.36-2.51-12.09-5.47,2,6.35,10.39,10.74,19.31,11.91,11.18.91,22.59-3.24,22.66-12.45C64,93.12,62.74,73,54.48,66.37Z"/><path class="cls-4" d="M40.64,22.46c-1.27,4.91-6.91,7.7-12.61,6.23s-8.23-6.48-8-11.56c.32-7.39,8.34-9.34,14-7.87S41.91,17.54,40.64,22.46Z"/><path class="cls-3" d="M34.05,9.26a14.78,14.78,0,0,0-7.12,0,14.26,14.26,0,0,1,3.17.44C35.8,11.13,38,18,36.69,22.86a8.93,8.93,0,0,1-6.42,6.2c4.87.33,9.27-2.33,10.37-6.6C41.91,17.54,39.75,10.73,34.05,9.26Z"/><path class="cls-5" d="M35.77,21.2c-.67,2.6-3.65,4.07-6.66,3.3s-4.9-3.51-4.23-6.11,3.65-4.07,6.66-3.29S36.44,18.61,35.77,21.2Z"/><path class="cls-4" d="M90.63,34.15c-1.27,4.92-6.91,7.71-12.6,6.24s-9.27-6.64-8-11.55S75.39,21,81.26,20.89C89,20.82,91.9,29.24,90.63,34.15Z"/><path class="cls-3" d="M86.52,22.48A12.12,12.12,0,0,1,88.46,32c-1.27,4.92-6.91,7.71-12.6,6.24a12,12,0,0,1-4.24-2A11.55,11.55,0,0,0,78,40.39c5.69,1.47,11.33-1.32,12.6-6.24C91.55,30.58,90.27,25.14,86.52,22.48Z"/><path class="cls-5" d="M85.31,32.78c-.62,2.37-3.34,3.72-6.09,3s-4.48-3.21-3.87-5.58,3.34-3.72,6.09-3S85.92,30.4,85.31,32.78Z"/><path class="cls-4" d="M81.57,56.08C85.29,39.93,74.41,22.85,57,18.19h0l-.43-.1L56.11,18h0C38.48,14.07,21,24.2,16.8,40.25a33.72,33.72,0,0,0-1.2,9.64c.12,3,1.33,13.3,14.75,19.08a96.22,96.22,0,0,0,12.29,4.09v0l.43.09.43.12v0a95.66,95.66,0,0,0,12.79,2c14.57,1.05,20.39-7.52,21.88-10.13A33,33,0,0,0,81.57,56.08Z"/><path class="cls-3" d="M71.83,26.41A30.34,30.34,0,0,1,76.51,50a33,33,0,0,1-3.36,9.12c-1.49,2.62-7.29,11.2-21.86,10.18a97.34,97.34,0,0,1-12.8-2v0l-.42-.11-.44-.1v0a96.37,96.37,0,0,1-12.31-4.06,29.25,29.25,0,0,1-7.08-4.22C20.29,62.39,23.91,66.2,30.35,69a96.22,96.22,0,0,0,12.29,4.09v0l.43.09.43.12v0a95.66,95.66,0,0,0,12.79,2c14.57,1.05,20.39-7.52,21.88-10.13a33,33,0,0,0,3.39-9.11C84.06,45.27,80,34.05,71.83,26.41Z"/><path class="cls-6" d="M60.12,55.1c-1.54,6-8.93,9.23-14.26,7.85-5.59-1.44-10.23-7.8-8.68-13.77s7.93-9.49,14.26-7.86S61.66,49.12,60.12,55.1Z"/><path class="cls-3" d="M44.34,42.54c-.9,2.05,3.26,6.66,4.59,6.93,1.77.37,5.93-1.11,7.53-3.8Z"/><path class="cls-7" d="M65.75,47.19a3.54,3.54,0,1,1-2.54-4.3A3.54,3.54,0,0,1,65.75,47.19Z"/><path class="cls-8" d="M64.77,46.94A2.52,2.52,0,1,1,63,43.87,2.52,2.52,0,0,1,64.77,46.94Z"/><path class="cls-7" d="M35.86,39.48a3.54,3.54,0,1,0,4.31-2.54A3.55,3.55,0,0,0,35.86,39.48Z"/><path class="cls-8" d="M36.84,39.73a2.52,2.52,0,1,0,3.07-1.81A2.53,2.53,0,0,0,36.84,39.73Z"/><polygon class="cls-8" points="63.77 20.32 50.42 17.68 52.47 2.79 68.82 7.31 63.77 20.32"/><path class="cls-8" d="M51.16,16.91c5.78,2.32,12.39,3.45,18.22,1.26a7.11,7.11,0,0,1-4.23,4.46,12.71,12.71,0,0,1-6.27.68,21.3,21.3,0,0,1-9.83-3.67,10.07,10.07,0,0,1-3-2.89,5,5,0,0,1-.66-4C46.64,14.83,48.93,16,51.16,16.91Z"/><path class="cls-9" d="M58.63,50.66c-4.49,1.36-7.48,1.67-9.71,1.4-2.1-.79-4.61-2.44-8-5.73,0,0,.23,9.41,6.43,11.83v0h0l0,0v0C54.09,58.9,58.63,50.66,58.63,50.66Z"/></g></svg>