<?xml version="1.0" encoding="utf-8"?>
<!-- Generator: Adobe Illustrator 24.0.0, SVG Export Plug-In . SVG Version: 6.00 Build 0)  -->
<svg version="1.1" id="レイヤー_1" xmlns="http://www.w3.org/2000/svg" xmlns:xlink="http://www.w3.org/1999/xlink" x="0px"
	 y="0px" width="25.1px" height="25.1px" viewBox="0 0 25.1 25.1" style="enable-background:new 0 0 25.1 25.1;"
	 xml:space="preserve">
<style type="text/css">
	.st0{fill:#FFFFFF;}
</style>
<g>
	<g>
		<path class="st0" d="M10.9,15.8c0-2.8,3.1-4,3.9-5.5c0.4-0.6,0.5-1.2,0.5-1.8c0-2.1-1.7-2.6-2.7-2.6c-1.9,0-2.7,1.4-2.9,2
			C9.7,8.3,9.1,8.5,8.6,8.5c-0.6,0-1.3-0.3-1.3-1c0-0.8,1.4-3.8,5.3-3.8c2.8,0,5.2,1.8,5.2,4.8c0,0.7-0.2,1.5-0.5,2.2
			c-0.8,2-3.9,3.1-3.9,5.1c0,0.8-0.7,1.3-1.3,1.3C11.5,17,10.9,16.6,10.9,15.8z M12.2,21.5c-0.9,0-1.6-0.7-1.6-1.4
			c0-1,1-1.5,1.6-1.5c0.9,0,1.6,0.5,1.6,1.5C13.8,21.1,12.8,21.5,12.2,21.5z"/>
	</g>
	<path class="st0" d="M12.5,24.9c-6.8,0-12.4-5.6-12.4-12.4c0-6.8,5.6-12.4,12.4-12.4c6.8,0,12.4,5.6,12.4,12.4
		C24.9,19.4,19.4,24.9,12.5,24.9z M12.5,1.1C6.2,1.1,1.1,6.2,1.1,12.5S6.2,24,12.5,24S24,18.8,24,12.5S18.8,1.1,12.5,1.1z"/>
</g>
</svg>
