<?xml version="1.0" encoding="utf-8"?>
<!-- Generator: Adobe Illustrator 24.1.2, SVG Export Plug-In . SVG Version: 6.00 Build 0)  -->
<svg version="1.1" id="レイヤー_1" xmlns="http://www.w3.org/2000/svg" xmlns:xlink="http://www.w3.org/1999/xlink" x="0px"
	 y="0px" viewBox="0 0 28.9 28.9" style="enable-background:new 0 0 28.9 28.9;" xml:space="preserve">
<style type="text/css">
	.st0{fill:#333333;}
</style>
<path class="st0" d="M28,25.4l-7.4-7.3c0.3-0.4,0.5-0.8,0.8-1.3c0.1-0.2,0.3-0.5,0.4-0.8c0-0.1,0.1-0.2,0.1-0.2l0.1-0.2
	c0.1-0.1,0.1-0.3,0.2-0.4c0-0.1,0.1-0.2,0.1-0.3l0.1-0.2c0-0.1,0.1-0.3,0.1-0.4l0-0.2c0.2-0.9,0.3-1.7,0.3-2.6
	c0-1.5-0.3-2.9-0.9-4.3c-0.1-0.1-0.1-0.3-0.2-0.5c-0.1-0.1-0.1-0.3-0.2-0.5c-2-3.6-5.7-5.9-9.8-5.9c-0.9,0-1.8,0.1-2.7,0.3l-0.1,0
	c-0.2,0-0.3,0.1-0.5,0.1L8.1,1C8,1,8,1,7.9,1C7.7,1.1,7.6,1.2,7.3,1.2l-0.1,0C7.2,1.3,7.1,1.3,7,1.4C6.2,1.8,5.4,2.2,4.7,2.8
	C4,3.4,3.3,4,2.8,4.7c-0.4,0.5-0.7,1-1,1.6C1.6,6.5,1.5,6.8,1.4,7.1L1.2,7.5C1.1,7.6,1.1,7.8,1,7.9C1,8,1,8.1,1,8.1L0.9,8.4
	c0,0.1-0.1,0.3-0.1,0.4l0,0.2c-0.2,0.9-0.3,1.7-0.3,2.6c0,3,1.2,5.8,3.3,7.9c2.1,2.1,4.9,3.3,7.9,3.3c0,0,0,0,0,0
	c0.9,0,1.8-0.1,2.8-0.4c0.2-0.1,0.4-0.1,0.6-0.2l0.3-0.1c0.2-0.1,0.3-0.1,0.4-0.2l0.2-0.1c0.1,0,0.1-0.1,0.2-0.1
	c0.2-0.1,0.4-0.2,0.7-0.3l0.1-0.1c0.4-0.2,0.8-0.5,1.2-0.8l7.4,7.3c0.3,0.3,0.8,0.5,1.3,0.5c0.5,0,0.9-0.2,1.3-0.5
	C28.7,27.3,28.7,26.1,28,25.4z M8.9,1.2L8.9,1.2L8.9,1.2L8.9,1.2z M17.7,15.9c-0.5,0.7-1,1.2-1.7,1.7c-1.3,0.9-2.8,1.4-4.4,1.4
	c0,0,0,0,0,0c-4.1,0-7.5-3.4-7.5-7.5c0-1.6,0.5-3.1,1.4-4.4C6,6.5,6.5,6,7.2,5.5c1.3-0.9,2.8-1.4,4.4-1.4c0,0,0,0,0,0
	c2,0,3.9,0.8,5.3,2.2c1.4,1.4,2.2,3.3,2.2,5.3C19.1,13.2,18.6,14.7,17.7,15.9z"/>
</svg>
